# Blender v2.80 (sub 75) OBJ File: 'gridmap meshlibrary.blend'
# www.blender.org
o Corner_Internal_Cube.001
v -1.000000 0.200000 1.000000
v -1.000000 4.200000 1.000000
v -1.000000 0.200000 -1.000000
v -1.000000 4.200000 -1.000000
v -0.600000 0.200000 1.000000
v -0.600000 4.200000 1.000000
v -0.600000 0.200000 -1.000000
v -0.600000 4.200000 -1.000000
v -1.000000 0.200000 -0.600000
v -1.000000 4.200000 -0.600000
v -0.600000 0.200000 -0.600000
v -0.600000 4.200000 -0.600000
v -0.600000 4.200000 -1.000000
v -0.600000 0.200000 -1.000000
v -0.600000 0.200000 -0.600000
v -0.600000 4.200000 -0.600000
v 1.000000 4.200000 -1.000000
v 1.000000 0.200000 -1.000000
v 1.000000 0.200000 -0.600000
v 1.000000 4.200000 -0.600000
vt 0.200658 0.000000
vt 0.200658 1.000000
vt -0.000000 1.000000
vt 0.000000 0.000000
vt 0.000000 1.000000
vt 0.000000 0.000000
vt 0.186441 0.000000
vt 0.186909 1.000000
vt 0.812500 0.000000
vt 0.812500 1.000000
vt 0.000000 1.000000
vt 0.000000 0.000000
vt 0.894737 0.437500
vt 0.894737 0.000000
vt 0.947368 0.000000
vt 0.947368 0.437500
vt 0.105263 0.481250
vt 0.157895 0.481250
vt 0.157895 0.656250
vt 0.105263 0.656250
vt 0.052632 0.481250
vt 0.105263 0.481250
vt 0.105263 0.656250
vt 0.052632 0.656250
vt 0.052632 0.437500
vt 0.105263 0.437500
vt 0.105263 0.437500
vt 0.157895 0.437500
vt 0.000000 0.000000
vt 0.000000 0.000000
vt 0.000000 0.000000
vt 0.000000 0.000000
vt 1.000000 0.000000
vt 1.000000 1.000000
vt 0.187500 1.000000
vt 0.187500 0.000000
vt 0.526316 0.612500
vt 0.473684 0.612500
vt 0.473684 0.437500
vt 0.526316 0.437500
vt 0.000000 0.000000
vt 0.000000 0.000000
vt 0.000000 0.000000
vt 0.000000 0.000000
vt 0.000000 0.875000
vt 0.000000 0.437500
vt 0.052632 0.437500
vt 0.052632 0.875000
vt 0.219591 1.000000
vt 0.218361 0.000000
vt 1.000000 0.000000
vt 1.000000 1.000000
vt 0.812500 0.000000
vt 0.812500 1.000000
vt 0.000000 1.000000
vt 0.000000 0.000000
vt 0.210526 0.612500
vt 0.157895 0.612500
vt 0.157895 0.437500
vt 0.210526 0.437500
vn -1.0000 0.0000 0.0000
vn 0.0000 0.0000 -1.0000
vn 1.0000 0.0000 0.0000
vn 0.0000 0.0000 1.0000
vn 0.0000 -1.0000 0.0000
vn 0.0000 1.0000 0.0000
s off
f 9/1/1 10/2/1 4/3/1 3/4/1
f 3/5/2 4/6/2 8/7/2 7/8/2
f 11/9/3 12/10/3 6/11/3 5/12/3
f 5/13/4 6/14/4 2/15/4 1/16/4
f 9/17/5 11/18/5 5/19/5 1/20/5
f 12/21/6 10/22/6 2/23/6 6/24/6
f 8/25/6 4/26/6 10/22/6 12/21/6
f 3/27/5 7/28/5 11/18/5 9/17/5
f 11/29/4 7/30/4 14/31/4 15/32/4
f 1/33/1 2/34/1 10/35/1 9/36/1
f 13/37/6 16/38/6 20/39/6 17/40/6
f 12/41/4 11/29/4 15/32/4 16/42/4
f 7/30/4 8/43/4 13/44/4 14/31/4
f 8/43/4 12/41/4 16/42/4 13/44/4
f 18/45/3 17/46/3 20/47/3 19/48/3
f 14/49/2 13/50/2 17/51/2 18/52/2
f 16/53/4 15/54/4 19/55/4 20/56/4
f 15/57/5 14/58/5 18/59/5 19/60/5
