# Blender v2.80 (sub 75) OBJ File: 'gridmap meshlibrary.blend'
# www.blender.org
mtllib Curve.mtl
o Curve_Cube.005
v 0.600000 0.200000 1.000000
v 0.600000 4.200000 1.000000
v 0.600000 0.200000 -1.000000
v 0.600000 4.200000 -1.000000
v 1.000000 0.200000 1.000000
v 1.000000 4.200000 1.000000
v 1.000000 0.200000 -1.000000
v 1.000000 4.200000 -1.000000
v 0.600000 0.200000 -0.600000
v 0.600000 4.200000 -0.600000
v 1.000000 0.200000 -0.600000
v 1.000000 4.200000 -0.600000
v -1.000000 4.200000 -0.600000
v -1.000000 4.200000 -1.000000
v -1.000000 0.200000 -1.000000
v -1.000000 0.200000 -0.600000
v -0.600000 4.200000 -0.600000
v -0.600000 0.200000 -0.600000
v -0.600000 4.200000 -1.000000
v -0.600000 0.200000 -1.000000
v -1.000000 4.200000 1.000000
v -1.000000 0.200000 1.000000
v -0.600000 4.200000 1.000000
v -0.600000 0.200000 1.000000
vt 0.875000 0.550000
vt 0.875000 0.550000
vt 0.875000 0.550000
vt 0.875000 0.550000
vt 0.375000 0.250000
vt 0.625000 0.250000
vt 0.625000 0.500000
vt 0.375000 0.500000
vt 0.375000 0.550000
vt 0.625000 0.550000
vt 0.625000 0.750000
vt 0.375000 0.750000
vt 0.625000 1.000000
vt 0.375000 1.000000
vt 0.125000 0.550000
vt 0.125000 0.750000
vt 0.875000 0.550000
vt 0.875000 0.750000
vt 0.875000 0.500000
vt 0.125000 0.500000
vt 0.375000 0.000000
vt 0.625000 0.000000
vt 0.625000 0.200000
vt 0.375000 0.200000
vt 0.375000 0.200000
vt 0.625000 0.200000
vt 0.625000 0.250000
vt 0.375000 0.250000
vt 0.875000 0.500000
vt 0.875000 0.500000
vt 0.625000 0.250000
vt 0.375000 0.250000
vt 0.125000 0.500000
vt 0.125000 0.550000
vt 0.125000 0.550000
vt 0.125000 0.500000
vt 0.625000 0.200000
vt 0.375000 0.200000
vt 0.375000 0.200000
vt 0.625000 0.200000
vt 0.625000 0.200000
vt 0.375000 0.200000
vt 0.125000 0.550000
vt 0.125000 0.550000
vn 0.0000 1.0000 0.0000
vn 0.0000 0.0000 -1.0000
vn 1.0000 0.0000 0.0000
vn 0.0000 0.0000 1.0000
vn 0.0000 -1.0000 0.0000
vn -1.0000 0.0000 0.0000
usemtl None
s off
f 17/1/1 13/2/1 21/3/1 23/4/1
f 3/5/2 4/6/2 8/7/2 7/8/2
f 11/9/3 12/10/3 6/11/3 5/12/3
f 5/12/4 6/11/4 2/13/4 1/14/4
f 9/15/5 11/9/5 5/12/5 1/16/5
f 12/10/1 10/17/1 2/18/1 6/11/1
f 8/7/1 4/19/1 10/17/1 12/10/1
f 3/20/5 7/8/5 11/9/5 9/15/5
f 7/8/3 8/7/3 12/10/3 11/9/3
f 1/21/6 2/22/6 10/23/6 9/24/6
f 16/25/6 13/26/6 14/27/6 15/28/6
f 17/1/1 19/29/1 14/30/1 13/2/1
f 19/31/2 20/32/2 15/28/2 14/27/2
f 20/33/5 18/34/5 16/35/5 15/36/5
f 3/20/5 9/15/5 18/34/5 20/33/5
f 4/6/2 3/5/2 20/32/2 19/31/2
f 10/17/1 4/19/1 19/29/1 17/1/1
f 9/24/4 10/23/4 17/37/4 18/38/4
f 24/39/4 23/40/4 21/41/4 22/42/4
f 18/38/3 17/37/3 23/40/3 24/39/3
f 16/35/5 18/34/5 24/43/5 22/44/5
f 13/26/6 16/25/6 22/42/6 21/41/6
