# Blender v2.80 (sub 75) OBJ File: 'gridmap meshlibrary.blend'
# www.blender.org
mtllib double.mtl
o Double_Cube.006
v -1.000000 0.200000 1.000000
v -1.000000 4.200000 1.000000
v -1.000000 0.200000 -1.000000
v -1.000000 4.200000 -1.000000
v -0.600000 0.200000 1.000000
v -0.600000 4.200000 1.000000
v -0.600000 0.200000 -1.000000
v -0.600000 4.200000 -1.000000
v 0.600000 0.200000 1.000000
v 0.600000 4.200000 1.000000
v 0.600000 0.200000 -1.000000
v 0.600000 4.200000 -1.000000
v 1.000000 0.200000 1.000000
v 1.000000 4.200000 1.000000
v 1.000000 0.200000 -1.000000
v 1.000000 4.200000 -1.000000
vt 0.499915 0.500119
vt 0.499847 0.999919
vt 0.000047 0.999851
vt 0.000115 0.500051
vt 0.499938 0.000104
vt 0.499900 0.499904
vt 0.000100 0.499866
vt 0.000138 0.000066
vt 0.125000 0.500000
vt 0.375000 0.500000
vt 0.375000 0.750000
vt 0.125000 0.750000
vt 0.625000 0.500000
vt 0.875000 0.500000
vt 0.875000 0.750000
vt 0.625000 0.750000
vt 0.499915 0.500119
vt 0.499847 0.999919
vt 0.000047 0.999851
vt 0.000115 0.500051
vt 0.499938 0.000104
vt 0.499900 0.499904
vt 0.000100 0.499866
vt 0.000138 0.000066
vt 0.125000 0.500000
vt 0.375000 0.500000
vt 0.375000 0.750000
vt 0.125000 0.750000
vt 0.625000 0.500000
vt 0.875000 0.500000
vt 0.875000 0.750000
vt 0.625000 0.750000
vn -1.0000 0.0000 0.0000
vn 1.0000 0.0000 0.0000
vn 0.0000 -1.0000 0.0000
vn 0.0000 1.0000 0.0000
usemtl None
s off
f 1/1/1 2/2/1 4/3/1 3/4/1
f 7/5/2 8/6/2 6/7/2 5/8/2
f 3/9/3 7/10/3 5/11/3 1/12/3
f 8/13/4 4/14/4 2/15/4 6/16/4
f 9/17/1 10/18/1 12/19/1 11/20/1
f 15/21/2 16/22/2 14/23/2 13/24/2
f 11/25/3 15/26/3 13/27/3 9/28/3
f 16/29/4 12/30/4 10/31/4 14/32/4
