# Blender v2.80 (sub 75) OBJ File: 'floor and wall.blend'
# www.blender.org
o Corner_Cube.004
v -1.400000 0.200000 3.000000
v -1.400000 4.200000 3.000000
v -1.400000 0.200000 0.600000
v -1.400000 4.200000 0.600000
v -1.000000 0.200000 3.000000
v -1.000000 4.200000 3.000000
v -1.000000 0.200000 0.600000
v -1.000000 4.200000 0.600000
v -1.400000 0.200000 1.000000
v -1.400000 4.200000 1.000000
v -1.000000 0.200000 1.000000
v -1.000000 4.200000 1.000000
v -1.000000 4.200000 0.600000
v -1.000000 0.200000 0.600000
v -1.000000 0.200000 1.000000
v -1.000000 4.200000 1.000000
v 1.000000 4.200000 0.600000
v 1.000000 0.200000 0.600000
v 1.000000 0.200000 1.000000
v 1.000000 4.200000 1.000000
vt 0.375000 0.200000
vt 0.625000 0.200000
vt 0.625000 0.250000
vt 0.375000 0.250000
vt 0.625000 0.500000
vt 0.375000 0.500000
vt 0.375000 0.550000
vt 0.625000 0.550000
vt 0.625000 0.750000
vt 0.375000 0.750000
vt 0.625000 1.000000
vt 0.375000 1.000000
vt 0.125000 0.550000
vt 0.125000 0.750000
vt 0.875000 0.550000
vt 0.875000 0.750000
vt 0.875000 0.500000
vt 0.125000 0.500000
vt 0.375000 0.500000
vt 0.375000 0.550000
vt 0.375000 0.000000
vt 0.625000 0.000000
vt 0.625000 0.500000
vt 0.625000 0.550000
vt 0.625000 0.550000
vt 0.625000 0.500000
vt 0.375000 0.500000
vt 0.375000 0.550000
vn -1.0000 0.0000 0.0000
vn 0.0000 0.0000 -1.0000
vn 1.0000 0.0000 0.0000
vn 0.0000 0.0000 1.0000
vn 0.0000 -1.0000 0.0000
vn 0.0000 1.0000 0.0000
s off
f 9/1/1 10/2/1 4/3/1 3/4/1
f 3/4/2 4/3/2 8/5/2 7/6/2
f 11/7/3 12/8/3 6/9/3 5/10/3
f 5/10/4 6/9/4 2/11/4 1/12/4
f 9/13/5 11/7/5 5/10/5 1/14/5
f 12/8/6 10/15/6 2/16/6 6/9/6
f 8/5/6 4/17/6 10/15/6 12/8/6
f 3/18/5 7/6/5 11/7/5 9/13/5
f 11/7/4 7/6/4 14/19/4 15/20/4
f 1/21/1 2/22/1 10/2/1 9/1/1
f 13/23/6 16/24/6 20/25/6 17/26/6
f 12/8/4 11/7/4 15/20/4 16/24/4
f 7/6/4 8/5/4 13/23/4 14/19/4
f 8/5/4 12/8/4 16/24/4 13/23/4
f 18/27/3 17/26/3 20/25/3 19/28/3
f 14/19/2 13/23/2 17/26/2 18/27/2
f 16/24/4 15/20/4 19/28/4 20/25/4
f 15/20/5 14/19/5 18/27/5 19/28/5
