{
    "asset" : {
        "generator" : "Khronos glTF Blender I/O v3.4.50",
        "version" : "2.0"
    },
    "scene" : 0,
    "scenes" : [
        {
            "name" : "Scene",
            "nodes" : [
                3
            ]
        }
    ],
    "nodes" : [
        {
            "mesh" : 0,
            "name" : "Hour Hand",
            "rotation" : [
                0.4999999701976776,
                0,
                0,
                0.8660253882408142
            ],
            "translation" : [
                0.0021648406982421875,
                -0.0024312734603881836,
                -0.0012640876229852438
            ]
        },
        {
            "mesh" : 1,
            "name" : "Minute Hand",
            "rotation" : [
                0.7592713236808777,
                0,
                0,
                0.6507741808891296
            ],
            "translation" : [
                0.0005611181259155273,
                -0.0024312734603881836,
                -0.0012640876229852438
            ]
        },
        {
            "children" : [
                0,
                1
            ],
            "name" : "0216 Hands",
            "scale" : [
                0.8965766429901123,
                0.8965766429901123,
                0.8965766429901123
            ],
            "translation" : [
                0.9516721367835999,
                0.9900574088096619,
                0
            ]
        },
        {
            "children" : [
                2
            ],
            "mesh" : 2,
            "name" : "Clock"
        }
    ],
    "materials" : [
        {
            "doubleSided" : true,
            "name" : "Clock Frame",
            "pbrMetallicRoughness" : {
                "baseColorFactor" : [
                    0.08001067489385605,
                    0.08001067489385605,
                    0.08001067489385605,
                    1
                ],
                "metallicFactor" : 0,
                "roughnessFactor" : 0.5
            }
        },
        {
            "doubleSided" : true,
            "name" : "Clock Frame.001",
            "pbrMetallicRoughness" : {
                "baseColorFactor" : [
                    0.08001067489385605,
                    0.08001067489385605,
                    0.08001067489385605,
                    1
                ],
                "metallicFactor" : 0,
                "roughnessFactor" : 0.5
            }
        },
        {
            "doubleSided" : true,
            "name" : "Clock Face",
            "pbrMetallicRoughness" : {
                "baseColorTexture" : {
                    "index" : 0
                },
                "metallicFactor" : 0,
                "roughnessFactor" : 0.5
            }
        }
    ],
    "meshes" : [
        {
            "name" : "Plane",
            "primitives" : [
                {
                    "attributes" : {
                        "POSITION" : 0,
                        "TEXCOORD_0" : 1,
                        "NORMAL" : 2
                    },
                    "indices" : 3,
                    "material" : 0
                }
            ]
        },
        {
            "name" : "Plane.001",
            "primitives" : [
                {
                    "attributes" : {
                        "POSITION" : 4,
                        "TEXCOORD_0" : 5,
                        "NORMAL" : 6
                    },
                    "indices" : 3,
                    "material" : 1
                }
            ]
        },
        {
            "name" : "Circle",
            "primitives" : [
                {
                    "attributes" : {
                        "POSITION" : 7,
                        "TEXCOORD_0" : 8,
                        "NORMAL" : 9
                    },
                    "indices" : 10,
                    "material" : 0
                },
                {
                    "attributes" : {
                        "POSITION" : 11,
                        "TEXCOORD_0" : 12,
                        "NORMAL" : 13
                    },
                    "indices" : 14,
                    "material" : 2
                }
            ]
        }
    ],
    "textures" : [
        {
            "sampler" : 0,
            "source" : 0
        }
    ],
    "images" : [
        {
            "bufferView" : 15,
            "mimeType" : "image/jpeg",
            "name" : "74d90cc05c5fdd48b005ece6dbff2d4f"
        }
    ],
    "accessors" : [
        {
            "bufferView" : 0,
            "componentType" : 5126,
            "count" : 4,
            "max" : [
                4.8023856891177275e-08,
                0.42451775074005127,
                0.019898297265172005
            ],
            "min" : [
                -5.551115123125783e-17,
                0,
                -0.019898297265172005
            ],
            "type" : "VEC3"
        },
        {
            "bufferView" : 1,
            "componentType" : 5126,
            "count" : 4,
            "type" : "VEC2"
        },
        {
            "bufferView" : 2,
            "componentType" : 5126,
            "count" : 4,
            "type" : "VEC3"
        },
        {
            "bufferView" : 3,
            "componentType" : 5123,
            "count" : 6,
            "type" : "SCALAR"
        },
        {
            "bufferView" : 4,
            "componentType" : 5126,
            "count" : 4,
            "max" : [
                4.8023860443890953e-08,
                0.6360952854156494,
                0.013128749094903469
            ],
            "min" : [
                0,
                0,
                -0.013128974474966526
            ],
            "type" : "VEC3"
        },
        {
            "bufferView" : 5,
            "componentType" : 5126,
            "count" : 4,
            "type" : "VEC2"
        },
        {
            "bufferView" : 6,
            "componentType" : 5126,
            "count" : 4,
            "type" : "VEC3"
        },
        {
            "bufferView" : 7,
            "componentType" : 5126,
            "count" : 378,
            "max" : [
                0.9580157995223999,
                1.6900177001953125,
                0.7023095488548279
            ],
            "min" : [
                0.8769777417182922,
                0.2853984832763672,
                -0.7023095488548279
            ],
            "type" : "VEC3"
        },
        {
            "bufferView" : 8,
            "componentType" : 5126,
            "count" : 378,
            "type" : "VEC2"
        },
        {
            "bufferView" : 9,
            "componentType" : 5126,
            "count" : 378,
            "type" : "VEC3"
        },
        {
            "bufferView" : 10,
            "componentType" : 5123,
            "count" : 576,
            "type" : "SCALAR"
        },
        {
            "bufferView" : 11,
            "componentType" : 5126,
            "count" : 32,
            "max" : [
                0.9580157995223999,
                1.6195625066757202,
                0.6318544745445251
            ],
            "min" : [
                0.958015501499176,
                0.3558535873889923,
                -0.6318544745445251
            ],
            "type" : "VEC3"
        },
        {
            "bufferView" : 12,
            "componentType" : 5126,
            "count" : 32,
            "type" : "VEC2"
        },
        {
            "bufferView" : 13,
            "componentType" : 5126,
            "count" : 32,
            "type" : "VEC3"
        },
        {
            "bufferView" : 14,
            "componentType" : 5123,
            "count" : 90,
            "type" : "SCALAR"
        }
    ],
    "bufferViews" : [
        {
            "buffer" : 0,
            "byteLength" : 48,
            "byteOffset" : 0,
            "target" : 34962
        },
        {
            "buffer" : 0,
            "byteLength" : 32,
            "byteOffset" : 48,
            "target" : 34962
        },
        {
            "buffer" : 0,
            "byteLength" : 48,
            "byteOffset" : 80,
            "target" : 34962
        },
        {
            "buffer" : 0,
            "byteLength" : 12,
            "byteOffset" : 128,
            "target" : 34963
        },
        {
            "buffer" : 0,
            "byteLength" : 48,
            "byteOffset" : 140,
            "target" : 34962
        },
        {
            "buffer" : 0,
            "byteLength" : 32,
            "byteOffset" : 188,
            "target" : 34962
        },
        {
            "buffer" : 0,
            "byteLength" : 48,
            "byteOffset" : 220,
            "target" : 34962
        },
        {
            "buffer" : 0,
            "byteLength" : 4536,
            "byteOffset" : 268,
            "target" : 34962
        },
        {
            "buffer" : 0,
            "byteLength" : 3024,
            "byteOffset" : 4804,
            "target" : 34962
        },
        {
            "buffer" : 0,
            "byteLength" : 4536,
            "byteOffset" : 7828,
            "target" : 34962
        },
        {
            "buffer" : 0,
            "byteLength" : 1152,
            "byteOffset" : 12364,
            "target" : 34963
        },
        {
            "buffer" : 0,
            "byteLength" : 384,
            "byteOffset" : 13516,
            "target" : 34962
        },
        {
            "buffer" : 0,
            "byteLength" : 256,
            "byteOffset" : 13900,
            "target" : 34962
        },
        {
            "buffer" : 0,
            "byteLength" : 384,
            "byteOffset" : 14156,
            "target" : 34962
        },
        {
            "buffer" : 0,
            "byteLength" : 180,
            "byteOffset" : 14540,
            "target" : 34963
        },
        {
            "buffer" : 0,
            "byteLength" : 25224,
            "byteOffset" : 14720
        }
    ],
    "samplers" : [
        {
            "magFilter" : 9728,
            "minFilter" : 9984
        }
    ],
    "buffers" : [
        {
            "byteLength" : 39944,
            "uri" : "data:application/octet-stream;base64,"
        }
    ]
}
